<svg xmlns="http://www.w3.org/2000/svg" viewBox="0 0 512 512" id="hiring-board">
  <rect width="497" height="302" x="7.5" y="202.5" fill="#ffc166" rx="30"></rect>
  <rect width="222" height="417" x="145" y="145" fill="#fff8cc" rx="8" transform="rotate(90 256 353.5)"></rect>
  <circle cx="256" cy="38.44" r="30.94" fill="#595f74"></circle>
  <path fill="#272a33" d="M329.74 330h27.09c2.51 0 3.58-2.67 3.58-5.1 0-2.82-1.29-5.25-3.58-5.25h-20.39v-12.98h11.41c2.51 0 3.58-2.43 3.58-4.49 0-2.43-1.29-4.64-3.58-4.64h-11.41v-12.86h20.39c2.29 0 3.58-2.44 3.58-5.25 0-2.44-1.07-5.1-3.58-5.1h-27.09c-2.59 0-5.17 1.22-5.17 3.65v48.32c0 2.44 2.58 3.7 5.17 3.7Zm58.05 103.47c15.42 0 27.49-7.15 27.49-26.37v-11.77a5.16 5.16 0 0 0-5.25-5.48h-18.77c-3.36 0-5.26 3.46-5.26 6.7 0 3.47 1.9 6.71 5.26 6.71h6.59v3.8c0 7.6-3.8 11.17-10.06 11.17s-9.94-3.57-9.94-11.17v-29.61c0-7.6 3.69-11.18 10-11.18 9.5 0 9.84 6 10 10.06s4 5.25 8.72 5.25c5.92 0 8.71-1.56 8.71-8.27 0-14.19-12.07-22.23-28-22.23-14.63 0-26.81 7.15-26.81 26.37v29.61c-.05 19.22 11.9 26.37 27.32 26.37Zm-211.18-82.39c-4.36 0-8.71 1.56-8.71 5.25v71.07c0 3.57 4.35 5.36 8.71 5.36s8.72-1.79 8.72-5.36v-71.07c0-3.69-4.33-5.25-8.72-5.25Zm63.25 46.59c7.82-3 13.52-10.17 13.52-22.68 0-18.21-12.18-23.91-27.49-23.91h-23.13a5.2 5.2 0 0 0-5.37 5.25v71.07c0 3.57 4.36 5.36 8.72 5.36s8.72-1.79 8.72-5.36v-26.93h7.37l15.31 29.72a6 6 0 0 0 5.59 3.24c5.14 0 11-4.69 11-9.05a3.73 3.73 0 0 0-.56-2Zm-14-10.61h-11.03v-20.79h11.06c6.26 0 10.05 2.57 10.05 10.39s-3.79 10.4-10.05 10.4Zm114.64-36c-4.36 0-8.72 1.56-8.72 5.25v38l-18.1-34.53c-4.24-8.15-6.59-8.71-12.85-8.71-4.36 0-8.71 1.67-8.71 5.36v71c0 3.57 4.35 5.36 8.71 5.36s8.72-1.79 8.72-5.36v-38l21.23 38.67c2.12 3.91 5.7 4.69 9.72 4.69 4.36 0 8.72-1.79 8.72-5.36v-71.1c.03-3.69-4.33-5.25-8.69-5.25ZM229.82 330h27.09c2.51 0 3.58-2.67 3.58-5.1 0-2.82-1.3-5.25-3.58-5.25h-20.39v-12.98h11.41c2.51 0 3.58-2.43 3.58-4.49 0-2.43-1.3-4.64-3.58-4.64h-11.41v-12.86h20.39c2.28 0 3.58-2.44 3.58-5.25 0-2.44-1.07-5.1-3.58-5.1h-27.09c-2.59 0-5.17 1.22-5.17 3.65v48.32c0 2.44 2.58 3.7 5.17 3.7Zm234.68-95h-417a7.5 7.5 0 0 0-7.5 7.5v222a7.5 7.5 0 0 0 7.5 7.5h417a7.5 7.5 0 0 0 7.5-7.5v-222a7.5 7.5 0 0 0-7.5-7.5ZM457 457H55V250h402ZM286.06 330c3 0 5.93-1.22 5.93-3.66V308h5l10.42 20.24a4.07 4.07 0 0 0 3.81 2.2c3.5 0 7.45-3.19 7.45-6.16a2.46 2.46 0 0 0-.38-1.37L309 306.06c5.33-2.05 9.21-6.92 9.21-15.45 0-12.4-8.3-16.28-18.72-16.28h-15.71a3.54 3.54 0 0 0-3.66 3.58v48.39c0 2.44 2.97 3.7 5.94 3.7Zm5.94-45.32h7.54c4.26 0 6.85 1.75 6.85 7.08s-2.59 7.07-6.85 7.07H292ZM489.28 198 290.93 54.47a38.44 38.44 0 1 0-69.86 0L22.72 198A37.56 37.56 0 0 0 0 232.5v242A37.54 37.54 0 0 0 37.5 512h437a37.54 37.54 0 0 0 37.5-37.5v-242a37.56 37.56 0 0 0-22.72-34.5ZM256 15a23.44 23.44 0 1 1-23.44 23.44A23.47 23.47 0 0 1 256 15Zm-26.12 51.61a38.35 38.35 0 0 0 52.24 0L459.5 195h-407ZM497 474.5a22.52 22.52 0 0 1-22.5 22.5h-437A22.52 22.52 0 0 1 15 474.5v-242A22.52 22.52 0 0 1 37.5 210h437a22.52 22.52 0 0 1 22.5 22.5Zm-389.55-41.74c4.36 0 8.71-1.79 8.71-5.36v-30.29h22.24v30.29c0 3.57 4.36 5.36 8.72 5.36s8.71-1.79 8.71-5.36v-71.07c0-3.69-4.36-5.25-8.71-5.25s-8.72 1.56-8.72 5.25v27.37h-22.24v-27.37c0-3.69-4.35-5.25-8.71-5.25s-8.72 1.56-8.72 5.25v71.07c0 3.6 4.36 5.36 8.72 5.36Zm58.6-106.3c.83 2.66 4.33 4 7.83 4s7.08-1.29 7.69-4l4-18 3.95 18c.61 2.66 4.27 4 7.69 4s6.93-1.29 7.84-4l15.1-46.46a3.28 3.28 0 0 0 .15-1c0-2.59-4.26-4.72-7.68-4.72-1.83 0-3.35.61-3.81 2.21l-11.56 39-6-25.72c-.45-2.05-3.11-3.12-5.7-3.12s-5.25 1.07-5.71 3.12l-6 25.72-11.57-39c-.45-1.6-2-2.21-3.8-2.21-3.43 0-7.69 2.13-7.69 4.72a3.62 3.62 0 0 0 .15 1Zm100.3-41.86-1.9 4.11a2.62 2.62 0 0 0-.31 1.22c0 1.9 2.21 3 3.81 3a2.33 2.33 0 0 0 2.28-1.37c4.49-10.43 4.72-11.26 4.72-12.18a5.82 5.82 0 0 0-11.64.08 6 6 0 0 0 3.04 5.14Zm5 148.16c4.36 0 8.72-1.79 8.72-5.36v-71.07c0-3.69-4.36-5.25-8.72-5.25s-8.71 1.56-8.71 5.25v71.07c.01 3.6 4.36 5.36 8.72 5.36Z"></path>
</svg>
